<svg xmlns="http://www.w3.org/2000/svg" viewBox="0 0 180 180">
  <!-- Background -->
  <rect width="180" height="180" rx="40" fill="#2563EB"/>

  <!-- Directory icon - centered and larger -->
  <g transform="translate(40, 45)">
    <!-- Left column -->
    <rect x="0" y="0" width="40" height="8" rx="2" fill="#60A5FA"/>
    <rect x="0" y="16" width="40" height="8" rx="2" fill="#60A5FA"/>
    <rect x="0" y="32" width="40" height="8" rx="2" fill="#60A5FA"/>
    <rect x="0" y="48" width="40" height="8" rx="2" fill="#60A5FA"/>
    <rect x="0" y="64" width="40" height="8" rx="2" fill="#60A5FA"/>

    <!-- Right column -->
    <rect x="48" y="0" width="40" height="8" rx="2" fill="#93C5FD"/>
    <rect x="48" y="16" width="40" height="8" rx="2" fill="#93C5FD"/>
    <rect x="48" y="32" width="40" height="8" rx="2" fill="#93C5FD"/>
    <rect x="48" y="48" width="40" height="8" rx="2" fill="#93C5FD"/>
    <rect x="48" y="64" width="40" height="8" rx="2" fill="#93C5FD"/>

    <!-- Bullet points -->
    <circle cx="-6" cy="4" r="3" fill="#DBEAFE"/>
    <circle cx="-6" cy="20" r="3" fill="#DBEAFE"/>
    <circle cx="-6" cy="36" r="3" fill="#DBEAFE"/>
    <circle cx="-6" cy="52" r="3" fill="#DBEAFE"/>
    <circle cx="-6" cy="68" r="3" fill="#DBEAFE"/>
  </g>
</svg>
